<svg id="_x33_0" enable-background="new 0 0 64 64" height="512" viewBox="0 0 64 64" width="512" xmlns="http://www.w3.org/2000/svg"><g><path d="m40.193 36.987-2.658-3.987h-11.07l-2.658 3.987 8.193 12.875zm-10.19 6.013h3.993l-1.996 3.138zm-2.545-4h9.084l-1.273 2h-6.539zm.077-4h8.93l1.333 2h-11.596z"/><path d="m49.214 8.685-.877-.293c-2.365-4.396-7.006-7.392-12.337-7.392-1.654 0-3 1.346-3 3v5h-2v-5c0-1.654-1.346-3-3-3-7.72 0-14 6.28-14 14v10.54l-7.056 6.048 1.616 13.728c.313 2.664 1.172 5.18 2.552 7.479 2.705 4.51 7.213 7.7 12.365 8.752l3.24.661c1.705.524 3.482.792 5.283.792 9.925 0 18-8.075 18-18v-20h1c1.654 0 3-1.346 3-3v-6.676c0-3.017-1.924-5.686-4.786-6.639zm2.786 6.639v1.676h-2v-2c0-1.411-.214-2.772-.604-4.057 1.584.864 2.604 2.528 2.604 4.381zm-4.139 31.676h-4.574l.606-2h4.107c0 .679-.056 1.343-.139 2zm-7.604 10h2.291c-.893.786-1.863 1.485-2.914 2.058zm.606-2 .606-2h4.366c-.407.701-.86 1.371-1.365 2zm1.212-4 .606-2h4.792c-.177.684-.389 1.354-.651 2zm2.424-8 .606-2h2.895v2zm1.213-4 .606-2h1.682v2zm1.212-4 1.076-3.552v3.552zm-11.924-31c0-.552.448-1 1-1 6.617 0 12 5.383 12 12v12h-15v-4c1.654 0 3-1.346 3-3v-8c0-.883-.391-1.67-1-2.22zm-5 11h4v2h-4zm0 4h4v1c0 .552-.448 1-1 1h-2c-.552 0-1-.448-1-1zm3-8c.552 0 1 .448 1 1v1h-4v-1c0-.552.448-1 1-1zm-5-8c.552 0 1 .448 1 1v5.78c-.609.549-1 1.337-1 2.22v8c0 1.654 1.346 3 3 3v4h-15v-12c0-6.617 5.383-12 12-12zm-4.123 56.589c-4.605-.94-8.633-3.792-11.051-7.822-1.232-2.055-2-4.304-2.28-6.685l-1.49-12.67 4.944-4.238v.513c0 3.643.631 7.226 1.876 10.648 1.479 4.067 3.878 7.834 6.937 10.892l1.24 1.24c.64.64 1.047 1.487 1.146 2.376l.615 6.142zm3.994.861-.684-6.817c-.149-1.349-.761-2.62-1.721-3.58l-1.24-1.24c-2.853-2.854-5.091-6.367-6.472-10.161-1.128-3.104-1.706-6.351-1.741-9.651h30.638l-9.426 31.106c-1.64.568-3.393.893-5.225.893-1.403 0-2.787-.192-4.129-.55zm23.129-37.45h-1v-4h2v3c0 .552-.448 1-1 1z"/></g></svg>